<?xml version="1.0" encoding="UTF-8"?>
<svg version="1.1" xmlns="http://www.w3.org/2000/svg" width="1600" height="933">
<path d="M0 0 C0.81683762 -0.00807175 1.63367523 -0.01614349 2.4752655 -0.02445984 C4.20411089 -0.0382475 5.93298288 -0.04899327 7.66186523 -0.05688477 C9.39632384 -0.06831156 11.13074993 -0.08861252 12.86499023 -0.1184082 C27.80956071 -0.37442104 42.62326272 0.69853388 55.98046875 8.11328125 C56.64006592 8.46277832 57.29966309 8.81227539 57.97924805 9.17236328 C78.52523742 20.22371102 93.82344077 36.92945104 101.14453125 59.26416016 C107.0417528 78.91067911 105.48046875 98.69824224 105.48046875 119.23828125 C60.93046875 119.23828125 16.38046875 119.23828125 -29.51953125 119.23828125 C-28.44266702 140.01055854 -28.44266702 140.01055854 -17.51953125 156.23828125 C-8.73474994 163.71407197 -0.11532338 166.81523704 11.35546875 166.67578125 C12.23170898 166.66820801 13.10794922 166.66063477 14.01074219 166.65283203 C24.44455492 166.38782789 32.78137556 163.42523963 40.48046875 156.23828125 C41.95413535 154.51838176 43.35235264 152.79281238 44.66796875 150.94921875 C50.95780098 145.01183402 57.56356298 144.67985583 65.76171875 144.84765625 C66.81580933 144.85331604 67.8698999 144.85897583 68.95593262 144.86480713 C72.29792129 144.88706391 75.63880822 144.93724148 78.98046875 144.98828125 C81.25649485 145.00836002 83.53253788 145.02660837 85.80859375 145.04296875 C91.36625657 145.08689345 96.92328392 145.15369788 102.48046875 145.23828125 C98.3134834 159.66804229 92.6568173 172.03881686 82.48046875 183.23828125 C81.66964844 184.14191406 80.85882812 185.04554688 80.0234375 185.9765625 C64.91031668 201.97478557 43.69455776 212.70200725 21.5249939 213.621521 C18.07149458 213.70706653 14.62219667 213.70754427 11.16796875 213.67578125 C10.08104736 213.67022217 10.08104736 213.67022217 8.97216797 213.66455078 C-18.14177693 213.46724975 -39.97934244 204.38728159 -59.21850586 185.0300293 C-79.60090352 163.5356807 -83.22599275 137.29295099 -83.04101562 108.91821289 C-83.01820369 105.38256595 -83.03178435 101.84812134 -83.05476665 98.31251526 C-83.15055676 81.00113654 -83.20122892 64.4722223 -74.70703125 48.86328125 C-74.3615625 48.20320068 -74.01609375 47.54312012 -73.66015625 46.86303711 C-70.70691004 41.33584211 -67.41146614 36.15713466 -63.51953125 31.23828125 C-62.92785156 30.48289062 -62.33617187 29.7275 -61.7265625 28.94921875 C-46.88472403 11.13901259 -23.03623739 0.22134705 0 0 Z M-20.72265625 56.69140625 C-26.82941503 65.34707304 -27.51953125 71.42915967 -27.51953125 82.23828125 C-2.10953125 82.23828125 23.30046875 82.23828125 49.48046875 82.23828125 C49.48046875 70.01327041 45.82336814 60.26405141 37.48046875 51.23828125 C29.00820815 43.79014007 18.79549889 40.5117831 7.6171875 40.921875 C-4.17247914 42.11111908 -13.15565656 47.67154262 -20.72265625 56.69140625 Z " fill="#322E53" transform="translate(690.51953125,466.76171875)"/>
<path d="M0 0 C1.87653763 0.01273453 1.87653763 0.01273453 3.79098511 0.02572632 C7.08292677 0.05343856 10.37303309 0.10713023 13.66436768 0.1739502 C17.03643583 0.235838 20.40877505 0.26283923 23.78125 0.29296875 C30.37310091 0.35883199 36.96374446 0.45901702 43.5546875 0.5859375 C41.90408086 4.91843886 39.72534863 8.58086668 37.12890625 12.40234375 C36.67768906 13.07497253 36.22647186 13.74760132 35.76158142 14.44061279 C34.77728483 15.90709298 33.79093839 17.37219891 32.80279541 18.83609009 C30.09708272 22.84513535 27.40693327 26.86461225 24.71484375 30.8828125 C24.14252014 31.73623734 23.57019653 32.58966217 22.98052979 33.46894836 C15.98755482 43.90623252 9.08453325 54.40273745 2.1796875 64.8984375 C-18.36451789 96.12458257 -18.36451789 96.12458257 -25.3359375 106.25 C-26.45613045 107.90337403 -27.57593516 109.55701117 -28.6953125 111.2109375 C-29.58283203 112.47744141 -29.58283203 112.47744141 -30.48828125 113.76953125 C-31.31005859 114.99736328 -31.31005859 114.99736328 -32.1484375 116.25 C-32.63989258 116.96623535 -33.13134766 117.6824707 -33.63769531 118.42041016 C-34.70723549 120.63439348 -34.70723549 120.63439348 -33.70922852 123.1652832 C-32.06533411 126.31367282 -30.14162822 129.2265955 -28.1328125 132.1484375 C-27.22803655 133.4849127 -26.32445256 134.8221954 -25.421875 136.16015625 C-24.94008789 136.87349121 -24.45830078 137.58682617 -23.96191406 138.32177734 C-21.26947277 142.34136854 -18.6398045 146.40160949 -16.0078125 150.4609375 C-15.17963013 151.73723022 -15.17963013 151.73723022 -14.3347168 153.03930664 C-10.41991384 159.07579862 -6.51185206 165.1166618 -2.60522461 171.15844727 C0.89895302 176.57663436 4.412582 181.98863459 7.9296875 187.3984375 C8.46787109 188.22633789 9.00605469 189.05423828 9.56054688 189.90722656 C12.40309317 194.27920472 15.24747716 198.64997825 18.09375 203.01953125 C18.67334473 203.90987061 19.25293945 204.80020996 19.85009766 205.7175293 C20.95072418 207.40819379 22.05192031 209.09848767 23.15380859 210.78833008 C24.6262511 213.05070854 26.09185253 215.31733767 27.5546875 217.5859375 C28.28945313 218.71612305 28.28945313 218.71612305 29.0390625 219.86914062 C29.49796875 220.58521484 29.956875 221.30128906 30.4296875 222.0390625 C30.83960938 222.67489258 31.24953125 223.31072266 31.671875 223.96582031 C32.5546875 225.5859375 32.5546875 225.5859375 32.5546875 227.5859375 C11.4346875 227.5859375 -9.6853125 227.5859375 -31.4453125 227.5859375 C-35.4053125 220.3259375 -39.3653125 213.0659375 -43.4453125 205.5859375 C-45.81938805 201.4437319 -48.20003353 197.31722048 -50.6328125 193.2109375 C-51.80682692 191.21142891 -52.98000162 189.21142704 -54.15234375 187.2109375 C-54.70873535 186.2621875 -55.26512695 185.3134375 -55.83837891 184.3359375 C-58.19157967 180.30882517 -60.51809169 176.2673877 -62.8203125 172.2109375 C-63.19567139 171.55689941 -63.57103027 170.90286133 -63.95776367 170.22900391 C-66.4453125 165.82097848 -66.4453125 165.82097848 -66.4453125 163.5859375 C-67.1053125 163.5859375 -67.7653125 163.5859375 -68.4453125 163.5859375 C-68.71085938 164.29137695 -68.97640625 164.99681641 -69.25 165.72363281 C-70.51047414 168.74197407 -71.98071253 171.5243051 -73.5703125 174.3828125 C-74.1895459 175.49817383 -74.8087793 176.61353516 -75.44677734 177.76269531 C-76.11270234 178.95391773 -76.77888599 180.14499559 -77.4453125 181.3359375 C-77.78234192 181.9403064 -78.11937134 182.54467529 -78.46661377 183.1673584 C-90.49120199 204.7292306 -90.49120199 204.7292306 -94.1340332 210.19311523 C-95.63038869 212.72869992 -95.63038869 212.72869992 -96.59057617 216.37133789 C-98.263156 221.10479314 -100.09741543 224.84343811 -104.4453125 227.5859375 C-114.18122751 230.05044178 -124.7742185 229.06299397 -134.73126221 228.61590576 C-138.53119065 228.46156137 -142.33259676 228.3937693 -146.13476562 228.31835938 C-153.57568953 228.15817598 -161.00923394 227.90275258 -168.4453125 227.5859375 C-164.33285847 219.19170534 -164.33285847 219.19170534 -161.8515625 215.31640625 C-161.38516357 214.58333252 -160.91876465 213.85025879 -160.43823242 213.0949707 C-159.69923706 211.94581177 -159.69923706 211.94581177 -158.9453125 210.7734375 C-157.86841224 209.08338262 -156.79159147 207.39327707 -155.71484375 205.703125 C-155.16908691 204.84944336 -154.62333008 203.99576172 -154.06103516 203.11621094 C-151.57207413 199.21841824 -149.1017931 195.30890627 -146.6328125 191.3984375 C-146.14619141 190.62846436 -145.65957031 189.85849121 -145.15820312 189.06518555 C-140.41966907 181.56072331 -135.71992157 174.03214203 -131.02124023 166.50268555 C-127.10137951 160.22457549 -123.15815287 153.96198599 -119.1953125 147.7109375 C-113.50659204 138.73324547 -107.95963731 129.67154747 -102.4453125 120.5859375 C-106.38095926 113.11484883 -110.64927802 105.992448 -115.3203125 98.9609375 C-116.64942671 96.94205714 -117.97751584 94.92250163 -119.3046875 92.90234375 C-119.98595703 91.86609863 -120.66722656 90.82985352 -121.36914062 89.76220703 C-124.80907582 84.49955924 -128.18925816 79.19903181 -131.5703125 73.8984375 C-136.39732089 66.33889682 -141.24094473 58.79119133 -146.1328125 51.2734375 C-146.6481958 50.4805835 -147.1635791 49.68772949 -147.69458008 48.87084961 C-150.4975518 44.5632219 -153.31369941 40.26460399 -156.140625 35.97265625 C-156.74559814 35.05073486 -157.35057129 34.12881348 -157.97387695 33.17895508 C-159.14046249 31.4015366 -160.31072659 29.62652566 -161.48510742 27.85424805 C-162.00435791 27.06187744 -162.5236084 26.26950684 -163.05859375 25.453125 C-163.52048096 24.75300293 -163.98236816 24.05288086 -164.45825195 23.33154297 C-165.4453125 21.5859375 -165.4453125 21.5859375 -165.4453125 19.5859375 C-157.53532054 19.1901898 -149.62951873 18.88916107 -141.71204567 18.70513058 C-138.03410728 18.61674209 -134.36297906 18.49723049 -130.68896484 18.3034668 C-107.15541016 17.09548243 -107.15541016 17.09548243 -101.23040771 21.07272339 C-97.6851285 24.92792147 -95.91885017 29.39118818 -94.26739502 34.30184937 C-93.00468546 37.81018321 -91.13609777 40.89523816 -89.25 44.09765625 C-88.58522241 45.29758152 -87.92502004 46.5000535 -87.26953125 47.70507812 C-86.94774902 48.29393799 -86.6259668 48.88279785 -86.29443359 49.48950195 C-85.97297363 50.07820068 -85.65151367 50.66689941 -85.3203125 51.2734375 C-84.00684674 53.67407781 -82.69169041 56.07378309 -81.375 58.47265625 C-81.05698425 59.05224091 -80.73896851 59.63182556 -80.41131592 60.22897339 C-76.83513692 66.72638703 -73.14504509 73.15831125 -69.4453125 79.5859375 C-66.88885312 77.24845393 -65.22805362 74.78468816 -63.46875 71.80859375 C-62.88899414 70.8340625 -62.30923828 69.85953125 -61.71191406 68.85546875 C-61.08768555 67.79714844 -60.46345703 66.73882813 -59.8203125 65.6484375 C-58.817194 63.9629221 -57.81405457 62.2774189 -56.80993652 60.59249878 C-56.10706257 59.41287418 -55.40467892 58.2329573 -54.70275879 57.05276489 C-48.65914699 46.89335138 -42.52679554 36.78831547 -36.34912109 26.70996094 C-34.63774504 23.90170652 -32.95420734 21.07892796 -31.27734375 18.25 C-30.35544008 16.73620292 -29.4323729 15.22311343 -28.5078125 13.7109375 C-28.13237305 13.05802734 -27.75693359 12.40511719 -27.37011719 11.73242188 C-20.95865823 1.45870444 -11.36373628 -0.294437 0 0 Z " fill="#322E53" transform="translate(954.4453125,453.4140625)"/>
<path d="M0 0 C0.93765701 -0.00029205 1.87531403 -0.00058411 2.84138489 -0.00088501 C5.90924668 0.00049699 8.9768589 0.01600459 12.04467773 0.03173828 C14.18415698 0.03547243 16.32363794 0.0383175 18.46311951 0.04031372 C24.07069695 0.04791851 29.67816937 0.06753973 35.28570557 0.08972168 C42.02642904 0.1138627 48.76718779 0.12297611 55.5079422 0.1346283 C65.72729147 0.15396607 75.94641071 0.19231074 86.16577148 0.22705078 C86.16577148 14.74705078 86.16577148 29.26705078 86.16577148 44.22705078 C78.5822168 44.283125 78.5822168 44.283125 70.84545898 44.34033203 C67.63709196 44.37061836 64.42877997 44.40177045 61.22045898 44.43603516 C56.13129486 44.4903049 51.04223961 44.54141697 45.95288086 44.57348633 C41.84837496 44.59955084 37.74423583 44.63997517 33.63995743 44.69023705 C32.07637224 44.70688455 30.51272365 44.71841201 28.94906235 44.72466469 C26.75382046 44.73432916 24.55951236 44.76241434 22.36450195 44.79467773 C21.11651825 44.80578079 19.86853455 44.81688385 18.58273315 44.82832336 C13.68879178 45.39940048 10.38918925 47.00363302 6.91577148 50.47705078 C0.01288747 61.32443995 2.57772191 76.69243876 2.16577148 88.22705078 C29.88577148 88.22705078 57.60577148 88.22705078 86.16577148 88.22705078 C86.16577148 112.99804315 86.16577148 112.99804315 78.63061523 120.82080078 C59.4728133 138.62577388 20.55416337 128.22705078 2.16577148 128.22705078 C2.16577148 174.42705078 2.16577148 220.62705078 2.16577148 268.22705078 C-14.33422852 268.22705078 -30.83422852 268.22705078 -47.83422852 268.22705078 C-47.94456671 238.62110561 -48.03684467 209.01528043 -48.08955516 179.40918349 C-48.0958083 175.90967014 -48.10227995 172.41015723 -48.10888672 168.91064453 C-48.11019827 168.2139884 -48.11150982 167.51733227 -48.11286112 166.79956535 C-48.13458596 155.53644843 -48.17399123 144.27345981 -48.2199925 133.01041886 C-48.26683875 121.44355925 -48.29416714 109.87677424 -48.30467099 98.30982423 C-48.31118048 91.81697405 -48.32644401 85.32441435 -48.3628788 78.83165741 C-48.39692309 72.71509077 -48.40726421 66.59893312 -48.39976692 60.48228073 C-48.40113768 58.24261881 -48.41101931 56.00294261 -48.43025589 53.76336288 C-48.56603176 37.13432549 -47.07714085 24.80180692 -35.02563477 12.35986328 C-24.93815136 2.90157904 -13.51925114 -0.11234181 0 0 Z " fill="#322E53" transform="translate(415.834228515625,411.77294921875)"/>
<path d="M0 0 C0.66 0 1.32 0 2 0 C2.27453397 8.13629514 1.45668466 16.00470296 0.375 24.0625 C0.28830048 24.71152283 0.20160095 25.36054565 0.11227417 26.02923584 C-3.27992703 51.05986439 -7.00833306 76.32848152 -27.8515625 92.74609375 C-33.6565852 96.90179858 -39.82212479 100.43354157 -46 104 C-61.25566612 112.81634126 -73.00435202 121.83309837 -78.25390625 139.171875 C-79.21158849 142.80204225 -79.84730387 146.25894487 -80 150 C-80.0515625 151.08796875 -80.103125 152.1759375 -80.15625 153.296875 C-80.68044198 174.35191967 -74.32064846 193.23027422 -59.8125 208.75 C-55.28221268 213.09844332 -50.23593561 216.16233486 -44.8203125 219.2734375 C-42.4441963 220.72806819 -40.88733511 222.01520015 -39 224 C-77.28583048 225.05121613 -109.07500115 214.26108053 -137.1953125 187.67578125 C-138.12085938 186.79277344 -139.04640625 185.90976562 -140 185 C-140.78117187 184.27167969 -141.56234375 183.54335938 -142.3671875 182.79296875 C-147.83060849 177.55313972 -152.42421458 171.81246366 -157.03125 165.83203125 C-163.91256225 156.90348223 -170.99381169 148.0572756 -178.53515625 139.67578125 C-179.69910301 138.34422616 -180.79603788 136.95415944 -181.8671875 135.546875 C-188.34567511 127.81065903 -198.09619612 121.97386155 -208.1875 120.73046875 C-212.80704828 120.63122064 -217.43527755 121.34789679 -222 122 C-221.94711032 110.04693255 -216.55978201 100.75072888 -208.421875 92.2578125 C-197.59571868 82.16504096 -187.90139801 79.20509336 -173.3984375 79.64453125 C-165.26767666 80.12639277 -158.43950963 83.12685758 -152 88 C-152.55196152 90.94379477 -153.21695682 93.78521681 -154.015625 96.67578125 C-155.06697864 100.88215594 -155.38305627 104.8617872 -155.375 109.1875 C-155.37628906 109.91638428 -155.37757812 110.64526855 -155.37890625 111.39624023 C-155.24417849 118.40897328 -153.54921713 124.45625068 -151 131 C-151.15855469 129.85917969 -151.31710937 128.71835937 -151.48046875 127.54296875 C-153.45400831 111.59690931 -152.29737749 97.10624306 -142.96484375 83.4921875 C-127.21913542 63.52049383 -98.44720806 55.50820697 -75.35449219 47.59326172 C-65.44323871 44.18272141 -55.69607093 40.59059265 -46.125 36.3046875 C-45.31087646 35.94121216 -44.49675293 35.57773682 -43.65795898 35.20324707 C-32.58209785 30.12917241 -23.51299923 22.92388986 -14.73046875 14.578125 C-12.37264912 12.35185753 -9.96960881 10.22485222 -7.5 8.125 C-4.62453611 5.64923752 -2.35107855 2.98406123 0 0 Z M-194 98 C-194.99 98.495 -194.99 98.495 -196 99 C-195.67 100.65 -195.34 102.3 -195 104 C-193.68 103.67 -192.36 103.34 -191 103 C-191 101.68 -191 100.36 -191 99 C-191.99 98.67 -192.98 98.34 -194 98 Z M-150 133 C-149 135 -149 135 -149 135 Z " fill="#322E53" transform="translate(1229,342)"/>
<path d="M0 0 C35.75949367 0 35.75949367 0 44.2734375 8.0390625 C50.96937331 15.64394887 51.15050844 24.30547873 51.12025452 33.98471069 C51.12110894 34.98622402 51.12196337 35.98773734 51.12284368 37.01959956 C51.12448981 40.37294789 51.11899127 43.72624612 51.11352539 47.07958984 C51.11324331 49.48438516 51.11340167 51.88918056 51.1139679 54.29397583 C51.11419556 59.47005065 51.11136048 64.64611415 51.10573006 69.82218552 C51.09759476 77.30586817 51.09499775 84.78954474 51.09374207 92.27323134 C51.09155474 104.41571889 51.0849033 116.5581997 51.07543945 128.70068359 C51.06625709 140.49430304 51.05918028 152.28792066 51.05493164 164.08154297 C51.05466892 164.80879355 51.05440619 165.53604413 51.05413551 166.28533261 C51.05283045 169.93382217 51.05156675 173.58231175 51.05032361 177.23080134 C51.03996093 207.48720678 51.02152797 237.74359986 51 268 C34.17 268 17.34 268 0 268 C0 179.56 0 91.12 0 0 Z " fill="#322E53" transform="translate(528,412)"/>
<path d="M0 0 C38.2516129 0 38.2516129 0 45.15625 5.81640625 C45.5996875 6.39261719 46.043125 6.96882813 46.5 7.5625 C46.9640625 8.14128906 47.428125 8.72007812 47.90625 9.31640625 C50.27836943 12.9677758 50.12352411 16.28332194 50.12025452 20.51091003 C50.12110894 21.17500879 50.12196337 21.83910755 50.12284368 22.52333051 C50.12449328 24.75280426 50.11898562 26.98220308 50.11352539 29.21166992 C50.11324338 30.80815123 50.11340152 32.40463266 50.1139679 34.00111389 C50.11425533 38.33965217 50.10836726 42.67816292 50.10139394 47.01669478 C50.09515148 51.54907705 50.09455589 56.08145992 50.09336853 60.61384583 C50.09025786 69.19858249 50.082048 77.78330645 50.07201904 86.36803752 C50.06084974 96.14059173 50.05534539 105.91314654 50.05032361 115.68570554 C50.03986519 135.79047903 50.02152296 155.8952351 50 176 C33.5 176 17 176 0 176 C0 117.92 0 59.84 0 0 Z " fill="#322E53" transform="translate(1007,505)"/>
<path d="M0 0 C0.66 0 1.32 0 2 0 C2.6871337 12.91811365 1.23148449 23.7770548 -3 36 C-3.54140625 37.60101563 -3.54140625 37.60101563 -4.09375 39.234375 C-9.65529268 53.93273779 -19.01174619 65.99047517 -30 77 C-30.55034912 77.56936279 -31.10069824 78.13872559 -31.66772461 78.7253418 C-40.62807461 87.91117243 -51.22663231 95.13799343 -62.20703125 101.70703125 C-63.06683594 102.2218103 -63.92664062 102.73658936 -64.8125 103.26696777 C-75.34414624 109.48969393 -86.27533277 114.90170165 -97.21826172 120.35449219 C-107.32189825 125.40176827 -117.2689044 130.59172532 -126.9609375 136.3984375 C-127.78049927 136.88940918 -128.60006104 137.38038086 -129.44445801 137.88623047 C-140.45100148 144.58841387 -151.79317075 153.18975612 -159 164 C-159.66 164 -160.32 164 -161 164 C-160.81368905 155.39582156 -158.737704 148.7090145 -155 141 C-154.2575 139.43765625 -154.2575 139.43765625 -153.5 137.84375 C-137.27155046 105.69893648 -105.65968025 87.07584001 -76.11962891 68.71850586 C-50.17315627 52.55001331 -27.18856025 36.54291282 -8.84765625 11.75390625 C-8.30367187 11.02010742 -7.7596875 10.28630859 -7.19921875 9.53027344 C-6.12054613 8.06865917 -5.0487408 6.60194814 -3.984375 5.12988281 C-2.70306703 3.38456556 -1.3569438 1.68718285 0 0 Z " fill="#322E53" transform="translate(1230,252)"/>
</svg>
